<?xml version="1.0" encoding="UTF-8"?>
<svg width="1024" height="1024" viewBox="0 0 1024 1024" xmlns="http://www.w3.org/2000/svg">
  <defs>
    <linearGradient id="bg" x1="0" y1="0" x2="0" y2="1">
      <stop offset="0" stop-color="#202A6E"/>
      <stop offset="0.55" stop-color="#2C53D6"/>
      <stop offset="1" stop-color="#2F6BF6"/>
    </linearGradient>
    <radialGradient id="topglow" cx="0.5" cy="0.16" r="0.7">
      <stop offset="0" stop-color="#FFFFFF" stop-opacity="0.22"/>
      <stop offset="1" stop-color="#FFFFFF" stop-opacity="0"/>
    </radialGradient>
    <linearGradient id="boxFront" x1="0" y1="0" x2="0" y2="1">
      <stop offset="0" stop-color="#FFFFFF"/>
      <stop offset="1" stop-color="#DDE7FB"/>
    </linearGradient>
    <linearGradient id="boxTop" x1="0" y1="0" x2="1" y2="1">
      <stop offset="0" stop-color="#FFFFFF"/>
      <stop offset="1" stop-color="#EAF1FF"/>
    </linearGradient>
    <linearGradient id="boxRight" x1="0" y1="0" x2="1" y2="1">
      <stop offset="0" stop-color="#C7D6F4"/>
      <stop offset="1" stop-color="#A9BEEC"/>
    </linearGradient>
    <linearGradient id="arrow" x1="0" y1="0" x2="1" y2="0">
      <stop offset="0" stop-color="#13D2A6"/>
      <stop offset="1" stop-color="#10B894"/>
    </linearGradient>
    <filter id="cardShadow" x="-20%" y="-20%" width="140%" height="140%">
      <feDropShadow dx="0" dy="18" stdDeviation="26" flood-color="#0B1233" flood-opacity="0.40"/>
    </filter>
    <filter id="boxShadow" x="-30%" y="-30%" width="160%" height="160%">
      <feDropShadow dx="0" dy="22" stdDeviation="26" flood-color="#0A1740" flood-opacity="0.38"/>
    </filter>
    <clipPath id="cardClip">
      <path d="M 924.0,512.0 L 923.95,605.51 L 923.8,635.37 L 923.55,657.07 L 923.21,674.71 L 922.76,689.84 L 922.21,703.21 L 921.56,715.26 L 920.81,726.28 L 919.97,736.47 L 919.02,745.95 L 917.96,754.84 L 916.81,763.2 L 915.55,771.12 L 914.19,778.62 L 912.73,785.76 L 911.16,792.56 L 909.48,799.07 L 907.7,805.29 L 905.81,811.25 L 903.8,816.97 L 901.69,822.46 L 899.47,827.73 L 897.13,832.8 L 894.68,837.68 L 892.11,842.38 L 889.42,846.89 L 886.61,851.24 L 883.68,855.43 L 880.62,859.46 L 877.44,863.34 L 874.12,867.08 L 870.67,870.67 L 867.08,874.12 L 863.34,877.44 L 859.46,880.62 L 855.43,883.68 L 851.24,886.61 L 846.89,889.42 L 842.38,892.11 L 837.68,894.68 L 832.8,897.13 L 827.73,899.47 L 822.46,901.69 L 816.97,903.8 L 811.25,905.81 L 805.29,907.7 L 799.07,909.48 L 792.56,911.16 L 785.76,912.73 L 778.62,914.19 L 771.12,915.55 L 763.2,916.81 L 754.84,917.96 L 745.95,919.02 L 736.47,919.97 L 726.28,920.81 L 715.26,921.56 L 703.21,922.21 L 689.84,922.76 L 674.71,923.21 L 657.07,923.55 L 635.37,923.8 L 605.51,923.95 L 512.0,924.0 L 418.49,923.95 L 388.63,923.8 L 366.93,923.55 L 349.29,923.21 L 334.16,922.76 L 320.79,922.21 L 308.74,921.56 L 297.72,920.81 L 287.53,919.97 L 278.05,919.02 L 269.16,917.96 L 260.8,916.81 L 252.88,915.55 L 245.38,914.19 L 238.24,912.73 L 231.44,911.16 L 224.93,909.48 L 218.71,907.7 L 212.75,905.81 L 207.03,903.8 L 201.54,901.69 L 196.27,899.47 L 191.2,897.13 L 186.32,894.68 L 181.62,892.11 L 177.11,889.42 L 172.76,886.61 L 168.57,883.68 L 164.54,880.62 L 160.66,877.44 L 156.92,874.12 L 153.33,870.67 L 149.88,867.08 L 146.56,863.34 L 143.38,859.46 L 140.32,855.43 L 137.39,851.24 L 134.58,846.89 L 131.89,842.38 L 129.32,837.68 L 126.87,832.8 L 124.53,827.73 L 122.31,822.46 L 120.2,816.97 L 118.19,811.25 L 116.3,805.29 L 114.52,799.07 L 112.84,792.56 L 111.27,785.76 L 109.81,778.62 L 108.45,771.12 L 107.19,763.2 L 106.04,754.84 L 104.98,745.95 L 104.03,736.47 L 103.19,726.28 L 102.44,715.26 L 101.79,703.21 L 101.24,689.84 L 100.79,674.71 L 100.45,657.07 L 100.2,635.37 L 100.05,605.51 L 100.0,512.0 L 100.05,418.49 L 100.2,388.63 L 100.45,366.93 L 100.79,349.29 L 101.24,334.16 L 101.79,320.79 L 102.44,308.74 L 103.19,297.72 L 104.03,287.53 L 104.98,278.05 L 106.04,269.16 L 107.19,260.8 L 108.45,252.88 L 109.81,245.38 L 111.27,238.24 L 112.84,231.44 L 114.52,224.93 L 116.3,218.71 L 118.19,212.75 L 120.2,207.03 L 122.31,201.54 L 124.53,196.27 L 126.87,191.2 L 129.32,186.32 L 131.89,181.62 L 134.58,177.11 L 137.39,172.76 L 140.32,168.57 L 143.38,164.54 L 146.56,160.66 L 149.88,156.92 L 153.33,153.33 L 156.92,149.88 L 160.66,146.56 L 164.54,143.38 L 168.57,140.32 L 172.76,137.39 L 177.11,134.58 L 181.62,131.89 L 186.32,129.32 L 191.2,126.87 L 196.27,124.53 L 201.54,122.31 L 207.03,120.2 L 212.75,118.19 L 218.71,116.3 L 224.93,114.52 L 231.44,112.84 L 238.24,111.27 L 245.38,109.81 L 252.88,108.45 L 260.8,107.19 L 269.16,106.04 L 278.05,104.98 L 287.53,104.03 L 297.72,103.19 L 308.74,102.44 L 320.79,101.79 L 334.16,101.24 L 349.29,100.79 L 366.93,100.45 L 388.63,100.2 L 418.49,100.05 L 512.0,100.0 L 605.51,100.05 L 635.37,100.2 L 657.07,100.45 L 674.71,100.79 L 689.84,101.24 L 703.21,101.79 L 715.26,102.44 L 726.28,103.19 L 736.47,104.03 L 745.95,104.98 L 754.84,106.04 L 763.2,107.19 L 771.12,108.45 L 778.62,109.81 L 785.76,111.27 L 792.56,112.84 L 799.07,114.52 L 805.29,116.3 L 811.25,118.19 L 816.97,120.2 L 822.46,122.31 L 827.73,124.53 L 832.8,126.87 L 837.68,129.32 L 842.38,131.89 L 846.89,134.58 L 851.24,137.39 L 855.43,140.32 L 859.46,143.38 L 863.34,146.56 L 867.08,149.88 L 870.67,153.33 L 874.12,156.92 L 877.44,160.66 L 880.62,164.54 L 883.68,168.57 L 886.61,172.76 L 889.42,177.11 L 892.11,181.62 L 894.68,186.32 L 897.13,191.2 L 899.47,196.27 L 901.69,201.54 L 903.8,207.03 L 905.81,212.75 L 907.7,218.71 L 909.48,224.93 L 911.16,231.44 L 912.73,238.24 L 914.19,245.38 L 915.55,252.88 L 916.81,260.8 L 917.96,269.16 L 919.02,278.05 L 919.97,287.53 L 920.81,297.72 L 921.56,308.74 L 922.21,320.79 L 922.76,334.16 L 923.21,349.29 L 923.55,366.93 L 923.8,388.63 L 923.95,418.49 Z"/>
    </clipPath>
  </defs>

  <!-- Continuous-curvature squircle app surface (superellipse n=5) -->
  <g filter="url(#cardShadow)">
    <path d="M 924.0,512.0 L 923.95,605.51 L 923.8,635.37 L 923.55,657.07 L 923.21,674.71 L 922.76,689.84 L 922.21,703.21 L 921.56,715.26 L 920.81,726.28 L 919.97,736.47 L 919.02,745.95 L 917.96,754.84 L 916.81,763.2 L 915.55,771.12 L 914.19,778.62 L 912.73,785.76 L 911.16,792.56 L 909.48,799.07 L 907.7,805.29 L 905.81,811.25 L 903.8,816.97 L 901.69,822.46 L 899.47,827.73 L 897.13,832.8 L 894.68,837.68 L 892.11,842.38 L 889.42,846.89 L 886.61,851.24 L 883.68,855.43 L 880.62,859.46 L 877.44,863.34 L 874.12,867.08 L 870.67,870.67 L 867.08,874.12 L 863.34,877.44 L 859.46,880.62 L 855.43,883.68 L 851.24,886.61 L 846.89,889.42 L 842.38,892.11 L 837.68,894.68 L 832.8,897.13 L 827.73,899.47 L 822.46,901.69 L 816.97,903.8 L 811.25,905.81 L 805.29,907.7 L 799.07,909.48 L 792.56,911.16 L 785.76,912.73 L 778.62,914.19 L 771.12,915.55 L 763.2,916.81 L 754.84,917.96 L 745.95,919.02 L 736.47,919.97 L 726.28,920.81 L 715.26,921.56 L 703.21,922.21 L 689.84,922.76 L 674.71,923.21 L 657.07,923.55 L 635.37,923.8 L 605.51,923.95 L 512.0,924.0 L 418.49,923.95 L 388.63,923.8 L 366.93,923.55 L 349.29,923.21 L 334.16,922.76 L 320.79,922.21 L 308.74,921.56 L 297.72,920.81 L 287.53,919.97 L 278.05,919.02 L 269.16,917.96 L 260.8,916.81 L 252.88,915.55 L 245.38,914.19 L 238.24,912.73 L 231.44,911.16 L 224.93,909.48 L 218.71,907.7 L 212.75,905.81 L 207.03,903.8 L 201.54,901.69 L 196.27,899.47 L 191.2,897.13 L 186.32,894.68 L 181.62,892.11 L 177.11,889.42 L 172.76,886.61 L 168.57,883.68 L 164.54,880.62 L 160.66,877.44 L 156.92,874.12 L 153.33,870.67 L 149.88,867.08 L 146.56,863.34 L 143.38,859.46 L 140.32,855.43 L 137.39,851.24 L 134.58,846.89 L 131.89,842.38 L 129.32,837.68 L 126.87,832.8 L 124.53,827.73 L 122.31,822.46 L 120.2,816.97 L 118.19,811.25 L 116.3,805.29 L 114.52,799.07 L 112.84,792.56 L 111.27,785.76 L 109.81,778.62 L 108.45,771.12 L 107.19,763.2 L 106.04,754.84 L 104.98,745.95 L 104.03,736.47 L 103.19,726.28 L 102.44,715.26 L 101.79,703.21 L 101.24,689.84 L 100.79,674.71 L 100.45,657.07 L 100.2,635.37 L 100.05,605.51 L 100.0,512.0 L 100.05,418.49 L 100.2,388.63 L 100.45,366.93 L 100.79,349.29 L 101.24,334.16 L 101.79,320.79 L 102.44,308.74 L 103.19,297.72 L 104.03,287.53 L 104.98,278.05 L 106.04,269.16 L 107.19,260.8 L 108.45,252.88 L 109.81,245.38 L 111.27,238.24 L 112.84,231.44 L 114.52,224.93 L 116.3,218.71 L 118.19,212.75 L 120.2,207.03 L 122.31,201.54 L 124.53,196.27 L 126.87,191.2 L 129.32,186.32 L 131.89,181.62 L 134.58,177.11 L 137.39,172.76 L 140.32,168.57 L 143.38,164.54 L 146.56,160.66 L 149.88,156.92 L 153.33,153.33 L 156.92,149.88 L 160.66,146.56 L 164.54,143.38 L 168.57,140.32 L 172.76,137.39 L 177.11,134.58 L 181.62,131.89 L 186.32,129.32 L 191.2,126.87 L 196.27,124.53 L 201.54,122.31 L 207.03,120.2 L 212.75,118.19 L 218.71,116.3 L 224.93,114.52 L 231.44,112.84 L 238.24,111.27 L 245.38,109.81 L 252.88,108.45 L 260.8,107.19 L 269.16,106.04 L 278.05,104.98 L 287.53,104.03 L 297.72,103.19 L 308.74,102.44 L 320.79,101.79 L 334.16,101.24 L 349.29,100.79 L 366.93,100.45 L 388.63,100.2 L 418.49,100.05 L 512.0,100.0 L 605.51,100.05 L 635.37,100.2 L 657.07,100.45 L 674.71,100.79 L 689.84,101.24 L 703.21,101.79 L 715.26,102.44 L 726.28,103.19 L 736.47,104.03 L 745.95,104.98 L 754.84,106.04 L 763.2,107.19 L 771.12,108.45 L 778.62,109.81 L 785.76,111.27 L 792.56,112.84 L 799.07,114.52 L 805.29,116.3 L 811.25,118.19 L 816.97,120.2 L 822.46,122.31 L 827.73,124.53 L 832.8,126.87 L 837.68,129.32 L 842.38,131.89 L 846.89,134.58 L 851.24,137.39 L 855.43,140.32 L 859.46,143.38 L 863.34,146.56 L 867.08,149.88 L 870.67,153.33 L 874.12,156.92 L 877.44,160.66 L 880.62,164.54 L 883.68,168.57 L 886.61,172.76 L 889.42,177.11 L 892.11,181.62 L 894.68,186.32 L 897.13,191.2 L 899.47,196.27 L 901.69,201.54 L 903.8,207.03 L 905.81,212.75 L 907.7,218.71 L 909.48,224.93 L 911.16,231.44 L 912.73,238.24 L 914.19,245.38 L 915.55,252.88 L 916.81,260.8 L 917.96,269.16 L 919.02,278.05 L 919.97,287.53 L 920.81,297.72 L 921.56,308.74 L 922.21,320.79 L 922.76,334.16 L 923.21,349.29 L 923.55,366.93 L 923.8,388.63 L 923.95,418.49 Z" fill="url(#bg)"/>
  </g>
  <g clip-path="url(#cardClip)">
    <rect x="100" y="100" width="824" height="824" fill="url(#topglow)"/>
    <ellipse cx="512" cy="150" rx="520" ry="180" fill="#FFFFFF" opacity="0.06"/>
  </g>

  <!-- Package box (isometric) -->
  <g filter="url(#boxShadow)">
    <polygon points="300,392 640,392 752,326 412,326" fill="url(#boxTop)"/>
    <polygon points="640,392 752,326 752,668 640,734" fill="url(#boxRight)"/>
    <rect x="300" y="392" width="340" height="342" rx="20" fill="url(#boxFront)"/>
  </g>
  <!-- crate seam (lightened so it does not muddy small sizes) -->
  <line x1="300" y1="540" x2="640" y2="540" stroke="#C2CFEC" stroke-width="6" opacity="0.35"/>
  <polyline points="300,392 640,392 640,734" fill="none" stroke="#FFFFFF" stroke-width="3" opacity="0.5"/>
  <polyline points="640,392 752,326" fill="none" stroke="#FFFFFF" stroke-width="3" opacity="0.35"/>

  <!-- Teal inject arrow: extended further onto the blue and thickened so it
       stays a distinct shape at 16/32px -->
  <g>
    <path d="M176 458 H384 V412 L524 512 L384 612 V566 H176 Z" fill="url(#arrow)"/>
    <path d="M176 458 H384 V412 L524 512 L384 612 V566 H176 Z" fill="none" stroke="#0E9C7E" stroke-width="2" opacity="0.5"/>
  </g>
</svg>
